<svg width="13" height="15" viewBox="0 0 13 15" fill="none" xmlns="http://www.w3.org/2000/svg">
<path d="M0 2.4375V1.625C0 1.23906 0.310491 0.928571 0.696429 0.928571H3.94643L4.2192 0.385937C4.33527 0.147991 4.57612 0 4.84018 0H8.15692C8.42098 0 8.66183 0.147991 8.7808 0.385937L9.05357 0.928571H12.3036C12.6895 0.928571 13 1.23906 13 1.625V2.4375C13 2.62902 12.8433 2.78571 12.6518 2.78571H0.348214C0.156696 2.78571 0 2.62902 0 2.4375ZM12.0482 4.08281L11.4562 13.5513C11.4098 14.2855 10.8004 14.8571 10.0663 14.8571H2.93371C2.19955 14.8571 1.59018 14.2855 1.54375 13.5513L0.951786 4.08281C0.940179 3.88259 1.09978 3.71429 1.3 3.71429H11.7029C11.9002 3.71429 12.0598 3.88259 12.0482 4.08281Z" fill="black"/>
</svg>
