<svg id="Layer_1" data-name="Layer 1" xmlns="http://www.w3.org/2000/svg" viewBox="0 0 465.04 97.27"><title>_1_line</title><path d="M443.94,55.93Q447,60.46,447,70.56a33.14,33.14,0,0,1-.94,8.71h-38A37.77,37.77,0,0,1,406.78,68v-4.5h16.59v8.36c0,2.57.23,4.23.7,5a2.68,2.68,0,0,0,2.48,1.1,2.9,2.9,0,0,0,2.65-1.4,7.94,7.94,0,0,0,.87-4.15c0-4-.55-6.69-1.66-7.94s-3.91-3.32-8.35-6.23a81.82,81.82,0,0,1-8.83-6.41,15,15,0,0,1-3.58-5.51,24.26,24.26,0,0,1-1.42-9q0-7.89,2-11.54a13.52,13.52,0,0,1,6.51-5.7A26,26,0,0,1,425.61,18a28.3,28.3,0,0,1,11.86,2.25q4.9,2.25,6.49,5.66t1.59,11.6v2.72H429V35.14c0-2.38-.21-3.89-.63-4.54a2.35,2.35,0,0,0-2.12-1,2.69,2.69,0,0,0-2.44,1.32,7.66,7.66,0,0,0-.83,4,11.32,11.32,0,0,0,.93,5.18q.88,1.74,5.05,4.2Q440.85,51.39,443.94,55.93ZM126.12,70.56q0-10.1-3.1-14.63T108,44.31q-4.17-2.46-5-4.2a11.32,11.32,0,0,1-.93-5.18,7.66,7.66,0,0,1,.83-4,2.69,2.69,0,0,1,2.44-1.32,2.35,2.35,0,0,1,2.12,1c.42.65.63,2.16.63,4.54v5.09h16.59V37.51q0-8.17-1.59-11.6t-6.49-5.66A28.3,28.3,0,0,0,104.69,18a26,26,0,0,0-10.86,2.06,13.52,13.52,0,0,0-6.51,5.7q-2,3.66-2,11.54a24.26,24.26,0,0,0,1.42,9,15,15,0,0,0,3.58,5.51,80.77,80.77,0,0,0,8.83,6.41q6.66,4.37,8.35,6.23c1.11,1.25,1.66,3.89,1.66,7.94a7.94,7.94,0,0,1-.87,4.15,2.9,2.9,0,0,1-2.65,1.4,2.71,2.71,0,0,1-2.49-1.1c-.46-.73-.7-2.39-.7-5V63.52H85.86V68A37.77,37.77,0,0,0,87.2,79.27h38A33.14,33.14,0,0,0,126.12,70.56ZM63,79.27H80.83V19.44H63ZM193.73,19.44H178.8V50.37l-10-30.93H153.85V79.27h14.94V56.9l6.65,22.37h18.29ZM41.29,79.27v-14q0-5.5-.87-6.83c-.58-.87-2.1-1.31-4.56-1.31V79.27H18V19.44H30.64q12.64,0,17.12,1a11.8,11.8,0,0,1,7.3,5q2.82,4,2.82,12.79,0,8-2,10.78T48,52.28c3.53.88,5.91,2,7.12,3.52a10.37,10.37,0,0,1,2.27,4.05q.45,1.84.45,10.16v9.26Zm0-39V36.5q0-3.27-1.17-4.29c-.77-.68-2.2-1-4.26-1V46.47a7.85,7.85,0,0,0,4.22-.83Q41.3,44.82,41.29,40.27Zm261,39H320.1V19.44H302.24ZM367,43.67v24a67.36,67.36,0,0,1-.68,11.55H325.58V19.44H339q12.93,0,17.5,1.19a13.37,13.37,0,0,1,6.93,3.9,12.27,12.27,0,0,1,3,6A90.43,90.43,0,0,1,367,43.67Zm-17.86-4a35.47,35.47,0,0,0-.3-6,2.83,2.83,0,0,0-1.36-1.93,8.79,8.79,0,0,0-4-.62V76.37c2.58,0,4.16-.51,4.76-1.54s.89-3.84.89-8.43Zm52.8-6.53V19.44H372.11V79.27h31V74.38H390V59.28h11.16V46.21H390v-13ZM240.3,51.26H219.39V61.7H223v8.14q0,4.8-.7,6.45a2.62,2.62,0,0,1-2.65,1.65,2.31,2.31,0,0,1-2.38-1.46,19.87,19.87,0,0,1-.59-6.09v-33c0-3.51.2-5.68.59-6.53a2.67,2.67,0,0,1,4.67.21q.51,1.48.51,7.38v6.24H240.3v-3q0-8.44-1.57-12.88T232,21.22Q226.8,18,219,18t-13,3.71q-5,3.72-6.09,8.17t-1.06,14.3v20.4a81.21,81.21,0,0,0,.51,10.63,16.7,16.7,0,0,0,1.13,4.06H240.3Zm47.6,28V33.19h10.61V19.44h-39V33.19H270V79.27Zm-157.39,0h17.86V19.44H130.51Z"/></svg>